# xmcd
#
# Track frame offsets: 
#        150
#        12278
#        29952
#        53103
#        71906
#        103511
#        131483
#        154896
#        167937
#        192029
#        203719
#
# Disc length: 3293 seconds
#
# Revision: 0
# Processed by: cddbd v1.5.2PL0 Copyright (c) Steve Scherf et al.
# Submitted via: ExactAudioCopy v1.0b4
#
DISCID=9c0cdb0b
DTITLE=Erja Lyytinen - The Sky Is Crying
DYEAR=2014
DGENRE=Blues Rock
TTITLE0=Person To Person
TTITLE1=Baby Please Set A Date
TTITLE2=It Hurts Me Too
TTITLE3=Erja’s Contribution To Jazz
TTITLE4=The Sky Is Crying
TTITLE5=Got To Move
TTITLE6=The King Of The Slide Guitar
TTITLE7=Sho’ Nuff I Do
TTITLE8=Something Inside Me
TTITLE9=Hand In Hand
TTITLE10=Dust My Broom (live)
EXTD=
EXTT0=
EXTT1=
EXTT2=
EXTT3=
EXTT4=
EXTT5=
EXTT6=
EXTT7=
EXTT8=
EXTT9=
EXTT10=
PLAYORDER=
